<svg width="16" height="16" viewBox="0 0 16 16" fill="none" xmlns="http://www.w3.org/2000/svg"><path d="M13.9126 9.56098C13.6294 9.73737 13.2958 9.75922 13.0423 9.61834C12.7203 9.43922 12.5433 9.01971 12.5433 8.43629V6.69073C12.5433 5.8478 12.205 5.248 11.6394 5.08605C10.6808 4.81093 9.9599 5.96644 9.68897 6.40039L7.99842 9.10088V5.8002C7.97941 5.04078 7.72908 4.58654 7.25376 4.44956C6.93925 4.35902 6.46869 4.39532 6.01159 5.08449L2.22409 11.0763C1.71704 10.1279 1.45271 9.0719 1.45408 8C1.45408 4.39063 4.38996 1.45444 7.99842 1.45444C11.6069 1.45444 14.5424 4.39063 14.5424 8C14.5424 8.00624 14.544 8.01171 14.5444 8.01756C14.5444 8.0238 14.5432 8.02927 14.5436 8.03551C14.5776 8.73444 14.3479 9.29054 13.9126 9.56137V9.56098ZM15.9965 8.00039V8V7.98205L15.9961 7.9641C15.9759 3.56839 12.3963 0 7.99803 0C3.58826 0 0 3.58868 0 8C0 12.4109 3.58826 16 7.99842 16C10.0221 16 11.9535 15.2421 13.4361 13.8665C13.7308 13.5934 13.7482 13.1333 13.4749 12.839C13.3449 12.6978 13.1628 12.6141 12.9695 12.6068C12.7762 12.5995 12.588 12.6691 12.4474 12.8C11.2457 13.9212 9.65346 14.5459 7.99842 14.5456C6.06625 14.5456 4.32778 13.703 3.12878 12.3668L6.54434 6.96351V9.45444C6.54434 10.6509 7.01531 11.0377 7.41022 11.1508C7.80552 11.264 8.40957 11.1867 9.04373 10.1721L10.9224 7.17151C10.9826 7.07473 11.0381 6.99122 11.0888 6.91902V8.43629C11.0888 9.55473 11.5435 10.4492 12.3361 10.8898C13.0507 11.287 13.949 11.2511 14.681 10.7961C15.5683 10.2439 16.0464 9.22654 15.9965 8.00039Z" fill="#808A9D"></path></svg>